PathFileType	4	(X/Y/Z)	C:\Users\Gabre\Documents\2-Sophmore\Autumn\ME 191\Nick_10292018\Nick_10292018\Upper Extremity\static_upper.trc																																																																			
DataRate	CameraRate	NumFrames	NumMarkers	Units	OrigDataRate	OrigDataStartFrame	OrigNumFrames																																																															
100	100	5	23	mm	100	64	253																																																															
Frame#	Time	Back_IMU_O			Back_IMU_D			Back_IMU_X			Back_IMU_Y			c7			aa			L.Acromion			ij			EpL			EpM			R.Radius			R.Ulna			R.Hand			Humerus_IMU_O			Humerus_IMU_D			Humerus_IMU_X			Humerus_IMU_Y			Forearm_IMU_O			Forearm_IMU_D			Forearm_IMU_X			Forearm_IMU_Y			Hand_IMU_O			Scapula_IMU_O		
		X1	Y1	Z1	X2	Y2	Z2	X3	Y3	Z3	X4	Y4	Z4	X5	Y5	Z5	X6	Y6	Z6	X7	Y7	Z7	X8	Y8	Z8	X9	Y9	Z9	X10	Y10	Z10	X11	Y11	Z11	X12	Y12	Z12	X13	Y13	Z13	X14	Y14	Z14	X15	Y15	Z15	X16	Y16	Z16	X17	Y17	Z17	X18	Y18	Z18	X19	Y19	Z19	X20	Y20	Z20	X21	Y21	Z21	X22	Y22	Z22	X23	Y23	Z23
																																																																						
64	0.63	-585.04083	502.60995	1011.02069	-610.57642	572.41187	899.93976	-594.99164	587.50464	1000.70886	-600.78302	489.01413	910.22382	-579.59607	548.18762	1024.78381	-456.60059	406.43134	1008.0556	-506.08597	730.85059	977.23712	-407.30807	571.87714	984.15588	-153.9962	316.85791	954.2182	-154.48421	348.23224	885.96008	109.43177	400.00583	1010.18079	100.26692	339.19162	1025.64954	221.27637	394.43408	1019.9646	-338.58566	366.89432	1027.01135	-298.75345	294.43704	928.88391	-363.70584	296.6257	945.27753	-275.14975	362.72891	1009.30463	32.56105	407.29666	1013.81555	78.33737	308.9772	1023.64594	31.93634	308.41953	1017.38208	78.64937	407.32117	1020.39252	174.94299	376.72275	1039.2655	-484.2706	368.83121	1010.7735
65	0.64	-585.06964	502.61469	1010.99054	-610.61523	572.37976	899.90485	-595.00836	587.50464	1000.70819	-600.81195	488.9874	910.18481	-579.61597	548.16461	1024.75391	-456.58752	406.44424	1007.99518	-506.32449	730.86212	977.2959	-407.46152	571.92676	984.01898	-154.03706	316.92038	954.27338	-154.59427	348.38943	885.95361	109.39155	400.1557	1010.21234	100.19058	339.34091	1025.7052	221.22293	394.56284	1019.99377	-338.61932	366.91339	1027.01746	-298.77139	294.56046	928.89722	-363.73734	296.62552	945.30353	-275.16742	362.78665	1009.27997	32.54916	407.39691	1013.88202	78.28628	309.15182	1023.66998	31.97513	308.5275	1017.50012	78.62969	407.49097	1020.44946	174.89693	376.80347	1039.32959	-484.2345	368.86093	1010.72931
66	0.65	-585.11517	502.65762	1011.02313	-610.61353	572.31598	899.88477	-595.10529	587.49072	1000.72296	-600.85089	488.91098	910.10883	-579.67175	548.06042	1024.71472	-456.63895	406.4263	1007.98712	-506.4537	730.98438	977.27167	-407.53741	571.93744	984.16907	-154.0118	316.98499	954.27472	-154.47678	348.31671	886.28467	109.25227	400.21103	1010.26123	100.13271	339.38297	1025.71997	221.17783	394.64014	1020.00861	-338.69312	366.9574	1027.07935	-298.79236	294.61542	928.89862	-363.84372	296.74826	945.37085	-275.30167	362.76053	1009.43146	32.44318	407.48663	1013.86224	78.29631	309.19849	1023.74377	31.95551	308.52301	1017.67889	78.55308	407.63443	1020.66467	174.94247	376.92908	1039.37317	-484.2132	368.8237	1010.68311
67	0.66	-585.07904	502.61435	1010.94714	-610.61127	572.31598	899.87396	-595.11353	587.4906	1000.70209	-600.84802	488.91071	910.0838	-579.74158	548.06732	1024.69299	-456.72424	406.42673	1007.98108	-506.59534	730.98016	977.25507	-407.62915	571.97986	984.10876	-154.04092	317.07208	954.28436	-154.68602	348.60733	886.01746	109.51986	400.2829	1010.14685	100.11752	339.5477	1025.76624	221.11209	394.75931	1019.98407	-338.69312	366.9574	1027.07935	-298.79236	294.61542	928.89862	-363.87521	296.74808	945.39691	-275.29453	362.74838	1009.38739	32.44562	407.66647	1013.79095	78.32811	309.30359	1023.7674	32.02539	308.55515	1017.70978	78.47016	407.7753	1020.72028	174.84988	377.03571	1039.43103	-484.31848	368.966	1010.70801
68	0.67	-585.20148	502.60098	1010.90973	-610.58167	572.27698	899.78271	-595.28192	587.54852	1000.61401	-600.81458	488.85159	910.00677	-579.78296	548.04095	1024.59241	-456.69025	406.43982	1007.96948	-506.60657	730.90967	977.17645	-407.67313	572.12274	984.22931	-154.09366	317.14679	954.39313	-154.61116	348.72229	886.11816	109.17656	400.54987	1010.38623	100.07562	339.62421	1025.75049	221.02367	394.94742	1019.99518	-338.69312	366.9574	1027.07935	-298.81134	294.63605	928.8952	-363.8786	296.81769	945.39703	-275.36923	362.86783	1009.39435	32.32802	407.73779	1013.88312	78.36414	309.46799	1023.8067	31.80942	308.79303	1017.73181	78.42409	407.9375	1020.73309	174.88571	377.20816	1039.41528	-484.45135	368.89777	1010.70172
